<svg width="11" height="10" viewBox="0 0 11 10" fill="none" xmlns="http://www.w3.org/2000/svg">
<path d="M9.69155 0.849688C9.13815 0.295544 8.40028 0 7.62551 0C6.85075 0 6.11288 0.295544 5.55947 0.849688L5.375 1.0344L5.22743 0.88663C4.67403 0.295543 3.93616 0 3.16139 0C2.34973 0 1.61186 0.295544 1.05846 0.849688C-0.0852414 1.99492 -0.0852414 3.87901 1.05846 5.02424L5.11675 9.08796C5.19054 9.16185 5.30122 9.19879 5.375 9.19879C5.44879 9.19879 5.55947 9.16185 5.63326 9.08796L9.69155 5.02424C10.8353 3.87901 10.8353 1.99492 9.69155 0.849688ZM5.375 8.27522L1.57497 4.50704C0.726417 3.65735 0.726417 2.25352 1.57497 1.40383C2.01769 0.960516 2.57109 0.738859 3.16139 0.738859C3.75169 0.738859 4.30509 0.960516 4.71092 1.36689L5.11675 1.77326C5.26432 1.92103 5.48569 1.92103 5.63326 1.77326L6.03909 1.36689C6.48181 0.960516 7.03522 0.738859 7.62551 0.738859C8.21581 0.738859 8.76921 0.960516 9.17504 1.36689C10.0236 2.21658 10.0236 3.62041 9.17504 4.4701L5.375 8.27522Z" fill="#55626F"/>
</svg>
