<svg width="12" height="11" viewBox="0 0 12 11" fill="none" xmlns="http://www.w3.org/2000/svg">
<path fill-rule="evenodd" clip-rule="evenodd" d="M6.02125 0.88501C4.61341 0.88501 3.3331 1.32292 2.40234 2.03471C1.47152 2.74653 0.885254 3.73728 0.885254 4.83809C0.885254 6.80566 2.73192 8.42473 5.17689 8.73596V9.99788C5.17689 10.1132 5.24233 10.2321 5.36273 10.2837L5.37164 10.2866L5.38102 10.29C5.40278 10.2981 5.44479 10.3138 5.49273 10.3138C5.56397 10.3138 5.64457 10.2818 5.69808 10.2299L7.50264 8.62314C9.63387 8.1327 11.1572 6.59388 11.1572 4.83809C11.1572 3.73729 10.571 2.74654 9.64015 2.03472C8.70939 1.32293 7.42908 0.88501 6.02125 0.88501ZM1.51692 4.83814C1.51692 3.93669 2.01013 3.10895 2.82494 2.50251C3.63967 1.89612 4.76988 1.51681 6.02126 1.51681C7.27264 1.51681 8.40283 1.89613 9.21756 2.50254C10.0324 3.10899 10.5256 3.93676 10.5256 4.83823C10.5256 6.28392 9.22694 7.60374 7.29665 8.02251C7.22274 8.02681 7.16923 8.06408 7.13708 8.09539L5.79798 9.28702V8.45421C5.79798 8.2913 5.68115 8.15548 5.51472 8.13887L5.51315 8.13874C3.20657 7.94038 1.51692 6.50769 1.51692 4.83814Z" fill="#55626F"/>
</svg>
