<svg width="13" height="9" viewBox="0 0 13 9" fill="none" xmlns="http://www.w3.org/2000/svg">
<path d="M10.4762 6.9221V0.496742C10.4762 0.364977 10.4238 0.238593 10.3306 0.14543C10.2375 0.052268 10.1112 0 9.97943 0H5.17766V0.99347L9.4827 0.993373V6.922L8.44784 5.88713L7.74415 6.59081L9.62061 8.46737C9.71387 8.56092 9.84044 8.61347 9.97249 8.61347C10.1045 8.61347 10.2311 8.56092 10.3244 8.46737L12.2009 6.59091L11.4972 5.88716L10.4762 6.9221Z" fill="#55626F"/>
<path d="M2.76021 1.69704L3.79507 2.73191L4.49876 2.02822L2.6223 0.151668C2.5274 0.061386 2.40141 0.0110497 2.27042 0.0110497C2.13943 0.0110497 2.01343 0.0613885 1.91855 0.151668L0.0419922 2.02812L0.745749 2.73188L1.78061 1.69702V8.12237C1.78052 8.25183 1.83095 8.37609 1.92114 8.46886C2.01132 8.56164 2.13413 8.61554 2.2635 8.6191H7.18946V7.62573H2.76024L2.76021 1.69704Z" fill="#55626F"/>
</svg>
