<svg width="10" height="10" viewBox="0 0 10 10" fill="none" xmlns="http://www.w3.org/2000/svg">
<path fill-rule="evenodd" clip-rule="evenodd" d="M5.52415 1.54612V5.8802C5.52415 6.1296 5.32344 6.33185 5.0719 6.33185C4.82211 6.33185 4.61966 6.12947 4.61966 5.8802V1.54477L4.10881 2.05561C3.93384 2.23059 3.64997 2.23051 3.47211 2.05266C3.29555 1.87601 3.29653 1.58861 3.46916 1.41596L4.75429 0.130836C4.84136 0.0438389 4.95523 7.55944e-05 5.06965 0L5.07313 0.00136288C5.18799 0.00159003 5.30216 0.0449751 5.38803 0.130837L6.67316 1.41596C6.84813 1.59094 6.84806 1.8748 6.6702 2.05266C6.49363 2.2293 6.20621 2.22824 6.03358 2.05561L5.52415 1.54612ZM1.45369 8.36706H8.6902V5.19908C8.6902 4.95043 8.89091 4.74886 9.14245 4.74886C9.39224 4.74886 9.5947 4.952 9.5947 5.19908V8.8214C9.5947 8.94565 9.54465 9.05809 9.4631 9.13956C9.38035 9.22125 9.26776 9.27161 9.14305 9.27161H1.00095C0.876551 9.27161 0.763954 9.22171 0.682273 9.14047C0.599819 9.05733 0.549316 8.94489 0.549316 8.8214V5.19907C0.549316 4.95043 0.750029 4.74886 1.00156 4.74886C1.25136 4.74886 1.45381 4.952 1.45381 5.19907L1.45369 8.36706Z" fill="#55626F"/>
</svg>
