<svg width="330" height="122" viewBox="0 0 330 122" fill="none" xmlns="http://www.w3.org/2000/svg">
<g clip-path="url(#clip0_126_115)">
<path d="M290.688 122C284.856 122 279.194 120.251 274.398 117.072C269.602 120.263 263.939 122 258.108 122H250.126C246.625 122 243.146 121.364 239.87 120.149C236.594 121.364 233.115 122 229.614 122H222.094C215.452 122 209.102 119.763 203.98 115.767C198.858 119.763 192.52 122 185.866 122H177.885C174.417 122 170.95 121.376 167.696 120.172C164.431 121.376 160.975 122 157.519 122H148.704C140.644 122 133.236 118.832 127.832 113.416C122.429 118.832 115.021 122 106.96 122H98.1455C91.616 122 85.3567 119.843 80.2569 115.937C71.8811 119.968 62.3907 122 51.9885 122H29.6531C13.3067 122 0 108.579 0 92.0933V29.9067C0 13.4092 13.2955 0 29.6531 0H51.7071C63.1675 0 73.5134 2.42978 82.4634 7.23257C86.3136 9.29902 89.8485 11.7515 93.0345 14.59C98.2919 5.66571 107.884 0 118.511 0H137.165C144.865 0 152.127 3.06561 157.53 8.22038C162.934 3.06561 170.195 0 177.873 0H185.664C192.261 0 198.554 2.2027 203.654 6.13122C208.753 2.2027 215.047 0 221.621 0H229.603C233.104 0 236.583 0.635831 239.859 1.85072C243.135 0.635831 246.613 0 250.115 0H258.096C263.838 0 269.433 1.70312 274.195 4.80279C278.957 1.70312 284.552 0 290.294 0H298.489C309.826 0 320.003 6.35831 325.047 16.5997C330.09 26.8411 328.964 38.8651 322.108 47.9712L314.374 58.258L325.508 76.277C331.205 85.4965 331.497 97.1118 326.274 106.604C321.05 116.096 311.121 121.989 300.347 121.989H290.688V122Z" fill="url(#paint0_radial_126_115)"/>
<path d="M318.821 80.4895L304.816 57.8267L315.838 43.1798C320.87 36.4923 321.692 27.6588 317.999 20.1423C314.295 12.6259 306.82 7.948 298.501 7.948H290.305C284.169 7.948 278.293 10.6049 274.195 15.1352C270.21 10.7184 264.468 7.948 258.096 7.948H250.115C246.411 7.948 242.921 8.89039 239.859 10.5481C236.797 8.89039 233.318 7.948 229.603 7.948H221.621C214.168 7.948 207.571 11.7516 203.642 17.5309C199.578 11.5245 192.869 7.948 185.652 7.948H177.862C168.552 7.948 160.615 13.8749 157.508 22.1861C154.322 13.6364 146.261 7.948 137.143 7.948H118.488C109.077 7.948 100.769 13.9997 97.819 23.0263L95.6575 29.6117C91.3571 23.1398 85.6944 17.9737 78.7483 14.2609C70.9467 10.0712 61.8391 7.95935 51.6846 7.95935H29.6531C17.641 7.948 7.88046 17.792 7.88046 29.9069V92.1047C7.88046 104.208 17.641 114.064 29.6531 114.064H51.9998C62.0755 114.064 71.1155 111.94 78.8947 107.739C79.784 107.262 80.6396 106.752 81.484 106.218C85.5931 111.157 91.7173 114.064 98.1455 114.064H106.96C116.147 114.064 124.162 108.409 127.337 99.8369H128.328C131.502 108.398 139.518 114.064 148.704 114.064H157.519C161.11 114.064 164.6 113.155 167.696 111.498C170.736 113.133 174.203 114.064 177.873 114.064H185.855C193.398 114.064 200.051 110.181 203.958 104.288L204.138 104.549C208.202 110.51 214.9 114.064 222.071 114.064H229.592C233.295 114.064 236.785 113.121 239.847 111.464C242.91 113.121 246.4 114.064 250.103 114.064H258.085C264.558 114.064 270.379 111.202 274.375 106.661C278.462 111.305 284.417 114.064 290.676 114.064H300.336C308.239 114.064 315.534 109.738 319.373 102.766C323.212 95.7948 322.998 87.2565 318.81 80.5008L318.821 80.4895Z" fill="url(#paint1_radial_126_115)"/>
<path d="M29.6531 106.104C21.9977 106.104 15.7609 99.814 15.7609 92.0932V29.9067C15.7609 22.1859 21.9865 15.8958 29.6531 15.8958H51.7071C60.5557 15.8958 68.4137 17.7011 75.067 21.2662C81.9568 24.9563 87.3493 30.3382 91.0869 37.2415C94.7232 43.9518 96.5695 51.9451 96.5695 60.9943C96.5695 70.0435 94.7344 78.0255 91.1094 84.7358C87.3718 91.6504 82.0131 97.0209 75.1684 100.722C68.5488 104.299 60.7471 106.104 51.9885 106.104H29.6531V106.104ZM51.527 73.0751C53.9024 73.0524 55.8612 72.7004 57.3473 72.0078C57.9214 71.7467 58.6757 71.2471 59.3849 69.7256C59.869 68.7038 60.6683 66.2059 60.6683 60.9943C60.6683 55.7828 59.8578 53.3303 59.3737 52.3084C58.6532 50.7983 57.8539 50.2874 57.2347 50.0035C55.7824 49.3563 53.8573 48.993 51.527 48.9249V73.0751V73.0751Z" fill="url(#paint2_radial_126_115)"/>
<path d="M148.704 106.104C142.535 106.104 137.188 102.096 135.409 96.1466L134.137 91.8775H121.539L120.267 96.1466C118.477 102.108 113.141 106.104 106.972 106.104H98.1568C93.7099 106.104 89.4995 103.936 86.899 100.302C84.2984 96.6689 83.5667 91.957 84.9626 87.7105L105.317 25.5127C107.197 19.7562 112.499 15.8958 118.511 15.8958H137.165C143.177 15.8958 148.468 19.7562 150.359 25.5127L170.713 87.7105C172.109 91.9683 171.389 96.6803 168.777 100.314C166.176 103.947 161.966 106.116 157.519 106.116H148.704V106.104Z" fill="url(#paint3_radial_126_115)"/>
<path d="M222.094 106.104C217.523 106.104 213.245 103.833 210.645 100.03L199.747 84.0545V92.0932C199.747 99.814 193.522 106.104 185.855 106.104H177.873C170.218 106.104 163.981 99.814 163.981 92.0932V29.9067C163.981 22.1859 170.207 15.8958 177.873 15.8958H185.664C190.268 15.8958 194.569 18.1893 197.158 22.0383L207.74 37.7524V29.9067C207.74 22.1859 213.966 15.8958 221.632 15.8958H229.614C237.269 15.8958 243.506 22.1746 243.506 29.9067V92.1046C243.506 99.8254 237.281 106.116 229.614 106.116H222.094V106.104Z" fill="url(#paint4_radial_126_115)"/>
<path d="M290.688 106.104C285.836 106.104 281.265 103.493 278.777 99.2917L272 87.8809V92.1046C272 99.8254 265.774 106.116 258.108 106.116H250.126C242.471 106.116 236.234 99.8254 236.234 92.1046V29.9067C236.234 22.1859 242.459 15.8958 250.126 15.8958H258.108C265.763 15.8958 272 22.1746 272 29.9067V31.2579L279.171 21.5387C281.783 18.0076 285.948 15.8958 290.316 15.8958H298.512C303.826 15.8958 308.588 18.8705 310.952 23.6733C313.316 28.4761 312.787 34.1078 309.578 38.3655L295.281 57.3723L312.156 84.679C314.824 88.9936 314.96 94.4435 312.517 98.883C310.074 103.322 305.413 106.093 300.369 106.093H290.71L290.688 106.104Z" fill="url(#paint5_radial_126_115)"/>
<path d="M71.3632 28.2831C65.8356 25.3197 59.2836 23.8323 51.6958 23.8323H29.6531C26.332 23.8323 23.6414 26.5459 23.6414 29.8954V92.0932C23.6414 95.4427 26.332 98.1563 29.6531 98.1563H51.9998C59.4862 98.1563 65.9707 96.6803 71.4645 93.7055C76.9584 90.7421 81.2025 86.4843 84.1971 80.9321C87.1917 75.38 88.7002 68.7378 88.7002 60.9943C88.7002 53.2508 87.1917 46.6086 84.1859 41.0565C81.18 35.5043 76.9021 31.2465 71.3745 28.2831H71.3632ZM66.5111 73.1205C65.1602 76.0272 63.1901 78.0709 60.612 79.2517C58.034 80.4326 54.9156 81.0343 51.2793 81.0343H49.6582C46.3371 81.0343 43.6465 78.3207 43.6465 74.9712V47.0287C43.6465 43.6793 46.3371 40.9656 49.6582 40.9656H50.7052C54.5441 40.9656 57.7863 41.5561 60.4431 42.7482C63.0887 43.9291 65.1039 45.9728 66.4886 48.8795C67.862 51.7861 68.56 55.8282 68.56 60.9943C68.56 66.1604 67.8846 70.2139 66.5224 73.1092L66.5111 73.1205Z" fill="white"/>
<path d="M112.803 27.9994L92.4491 90.1972C91.1657 94.1144 94.059 98.1564 98.1568 98.1564H106.972C109.617 98.1564 111.959 96.4079 112.724 93.8532L114.402 88.2443C115.167 85.6896 117.509 83.9411 120.155 83.9411H135.533C138.178 83.9411 140.52 85.6896 141.285 88.2443L142.963 93.8532C143.728 96.4079 146.07 98.1564 148.716 98.1564H157.53C161.628 98.1564 164.522 94.1144 163.238 90.1972L142.884 27.9994C142.073 25.5128 139.766 23.8438 137.176 23.8438H118.522C115.933 23.8438 113.625 25.5242 112.814 27.9994H112.803ZM127.832 44.3039L134.846 66.8532C135.15 67.841 134.429 68.8401 133.405 68.8401H120.2" fill="white"/>
<path d="M215.621 62.743H215.047L190.64 26.5006C189.525 24.8429 187.656 23.8438 185.664 23.8438H177.873C174.552 23.8438 171.862 26.5574 171.862 29.9068V92.1047C171.862 95.4542 174.552 98.1678 177.873 98.1678H185.855C189.176 98.1678 191.867 95.4542 191.867 92.1047V59.121H192.295L217.129 95.545C218.255 97.1914 220.101 98.1678 222.083 98.1678H229.603C232.924 98.1678 235.615 95.4542 235.615 92.1047V29.9068C235.615 26.5574 232.924 23.8438 229.603 23.8438H221.621C218.3 23.8438 215.609 26.5574 215.609 29.9068V62.743H215.621Z" fill="white"/>
<path d="M288.2 53.6142L303.285 33.5742C306.291 29.5889 303.465 23.8551 298.501 23.8551H290.305C288.402 23.8551 286.612 24.7634 285.487 26.2962L265.121 53.8981H264.119V29.9068C264.119 26.5574 261.429 23.8438 258.108 23.8438H250.126C246.805 23.8438 244.114 26.5574 244.114 29.9068V92.1047C244.114 95.4542 246.805 98.1678 250.126 98.1678H258.108C261.429 98.1678 264.119 95.4542 264.119 92.1047V81.0571C264.119 79.7287 264.558 78.423 265.358 77.3671C267.936 73.9722 273.103 74.2674 275.287 77.9348L285.543 95.2044C286.624 97.0324 288.583 98.1451 290.699 98.1451H300.358C305.075 98.1451 307.957 92.9108 305.458 88.8801L287.896 60.4608C286.579 58.3262 286.702 55.5899 288.211 53.5915L288.2 53.6142Z" fill="white"/>
</g>
<defs>
<radialGradient id="paint0_radial_126_115" cx="0" cy="0" r="1" gradientUnits="userSpaceOnUse" gradientTransform="translate(164.994 61.0057) scale(124.264 125.327)">
<stop stop-color="#00DD20"/>
<stop offset="0.5" stop-color="#00C4A8"/>
<stop offset="1" stop-color="#00B5E2"/>
</radialGradient>
<radialGradient id="paint1_radial_126_115" cx="0" cy="0" r="1" gradientUnits="userSpaceOnUse" gradientTransform="translate(164.994 61.0058) scale(117.16 118.162)">
<stop stop-color="#FA470D"/>
<stop offset="0.33" stop-color="#F92F10"/>
<stop offset="0.48" stop-color="#FFA000"/>
<stop offset="1" stop-color="#FFE900"/>
</radialGradient>
<radialGradient id="paint2_radial_126_115" cx="0" cy="0" r="1" gradientUnits="userSpaceOnUse" gradientTransform="translate(56.1652 61.0057) scale(42.622 42.9867)">
<stop stop-color="#944BCB"/>
<stop offset="0.29" stop-color="#A747AB"/>
<stop offset="0.67" stop-color="#CB4070"/>
<stop offset="1" stop-color="#F43220"/>
</radialGradient>
<radialGradient id="paint3_radial_126_115" cx="0" cy="0" r="1" gradientUnits="userSpaceOnUse" gradientTransform="translate(127.832 0.567694) scale(44.1531 44.5308)">
<stop stop-color="#944BCB"/>
<stop offset="0.29" stop-color="#A747AB"/>
<stop offset="0.67" stop-color="#CB4070"/>
<stop offset="1" stop-color="#F43220"/>
</radialGradient>
<radialGradient id="paint4_radial_126_115" cx="0" cy="0" r="1" gradientUnits="userSpaceOnUse" gradientTransform="translate(203.744 0.567699) scale(42.3181 42.6801)">
<stop stop-color="#944BCB"/>
<stop offset="0.29" stop-color="#A747AB"/>
<stop offset="0.67" stop-color="#CB4070"/>
<stop offset="1" stop-color="#F43220"/>
</radialGradient>
<radialGradient id="paint5_radial_126_115" cx="0" cy="0" r="1" gradientUnits="userSpaceOnUse" gradientTransform="translate(275.231 0.567698) scale(41.9578 42.3168)">
<stop stop-color="#944BCB"/>
<stop offset="0.29" stop-color="#A747AB"/>
<stop offset="0.67" stop-color="#CB4070"/>
<stop offset="1" stop-color="#F43220"/>
</radialGradient>
<clipPath id="clip0_126_115">
<rect width="330" height="122" fill="white"/>
</clipPath>
</defs>
</svg>
